<svg width="148" height="16" viewBox="0 0 148 16" fill="none" xmlns="http://www.w3.org/2000/svg">
<path d="M29.9352 0.379395H23.6582V15.5451H29.9352C33.435 15.5451 35.7556 14.2181 36.8588 11.8674C37.3914 10.8058 37.5816 9.51676 37.5816 7.96227C37.5816 6.40778 37.3534 5.11869 36.8588 4.05709C35.7936 1.7064 33.435 0.379395 29.9352 0.379395ZM33.5872 10.6921C32.9405 12.057 31.6471 12.8153 29.4406 12.8153H27.0059V3.10923H29.4406C31.6471 3.10923 32.9785 3.8296 33.5872 5.23243C33.9296 5.95281 34.0818 6.78692 34.0818 7.96227C34.0818 9.13761 33.9296 9.97173 33.5872 10.6921Z" fill="black"/>
<path d="M40.4719 15.5451H50.6292V12.8911H43.8196V9.13761H50.5911V6.55944H43.8196V3.0334H50.6292V0.379395H40.4719V15.5451Z" fill="black"/>
<path d="M60.9395 6.55936C59.0374 6.06647 57.2494 5.80107 56.7929 4.8153C56.7169 4.58781 56.6788 4.39824 56.6788 4.13284C56.6788 3.86744 56.7169 3.67787 56.831 3.45038C57.1353 2.76792 58.0103 2.38878 59.1516 2.38878C60.3689 2.38878 61.1678 2.80583 61.5482 3.56412C61.7384 3.94327 61.8145 4.39824 61.8145 4.92904H65.2383C65.2383 4.05701 65.0861 3.37455 64.8198 2.73001C63.9829 0.985945 62.0047 0.0380859 59.3037 0.0380859C56.5266 0.0380859 54.4343 1.06177 53.6735 2.73001C53.4072 3.29872 53.255 3.86744 53.255 4.5499C53.255 5.23235 53.4072 5.76316 53.5974 6.25604C54.2441 7.65887 55.8419 8.34133 57.706 8.83422C59.6461 9.36502 61.5863 9.66833 62.1188 10.8058C62.233 11.0333 62.3091 11.2607 62.3091 11.602C62.3091 11.8674 62.233 12.1328 62.1188 12.4361C61.7765 13.1565 60.8254 13.5356 59.532 13.5356C58.1244 13.5356 57.2495 13.0806 56.831 12.2465C56.6408 11.8674 56.6027 11.3745 56.6027 10.8437H52.9507C52.9887 11.7157 53.1029 12.474 53.4072 13.1565C54.2441 14.9005 56.2603 16 59.4178 16C62.4232 16 64.6677 15.0143 65.5426 13.1944C65.8089 12.6257 65.9611 11.9811 65.9611 11.2228C65.9611 10.5025 65.8089 9.89582 65.6187 9.36502C64.8198 7.7347 62.9938 7.09016 60.9395 6.55936Z" fill="black"/>
<path d="M71.8954 0.379395H68.5857V15.5451H71.8954V0.379395Z" fill="black"/>
<path d="M82.738 9.70607H86.6563C86.6183 10.3885 86.5041 10.8435 86.3139 11.3364C85.7433 12.5496 84.4879 13.1563 82.738 13.1563C80.9119 13.1563 79.5805 12.4738 78.9337 11.1089C78.5533 10.2748 78.4012 9.40276 78.4012 7.96201C78.4012 6.52127 78.5533 5.61132 78.9337 4.81512C79.5805 3.45021 80.8359 2.76775 82.6619 2.76775C83.8031 2.76775 84.7922 3.03315 85.4389 3.63978C86.0096 4.09475 86.3139 4.77721 86.428 5.61132H89.8518C89.6997 4.01892 89.0149 2.654 87.9117 1.66823C86.6563 0.568715 84.8683 0 82.6999 0C79.2 0 76.8414 1.40283 75.6241 3.90518C75.0915 5.00469 74.8252 6.3317 74.8252 7.96201C74.8252 9.59233 75.0915 10.9193 75.6241 12.0188C76.8034 14.4833 79.2 15.924 82.6238 15.924C85.8194 15.924 88.0258 14.7108 89.1671 12.3222C89.7377 11.1089 89.966 9.74399 89.966 8.30324V7.27956H82.738V9.70607V9.70607Z" fill="black"/>
<path d="M103.281 10.8058L96.281 0.379395H92.8572V15.5451H96.1288V5.1566L103.091 15.5451H106.514V0.379395H103.281V10.8058Z" fill="black"/>
<path d="M124.851 12.2084C124.166 12.7771 123.215 13.1184 122.036 13.1184C120.324 13.1184 119.068 12.4359 118.422 11.1089C118.041 10.3127 117.889 9.32693 117.889 7.96201C117.889 6.5971 118.041 5.64924 118.422 4.85304C119.03 3.56395 120.21 2.80566 122.036 2.80566C123.215 2.80566 124.09 3.10898 124.775 3.67769C125.421 4.24641 125.764 5.00469 125.802 6.02838H129.34C129.264 4.28432 128.617 2.80566 127.362 1.74406C126.068 0.644544 124.28 0 122.15 0C118.688 0 116.291 1.44075 115.188 3.86726C114.655 5.04261 114.389 6.36961 114.389 7.96201C114.389 9.55442 114.655 10.8814 115.188 12.0568C116.367 14.5212 118.764 15.924 122.188 15.924C124.318 15.924 126.22 15.3174 127.476 14.18C128.655 13.1563 129.378 11.7155 129.416 9.97147H125.878C125.84 10.9572 125.459 11.6776 124.851 12.2084Z" fill="black"/>
<path d="M146.496 3.82935C145.354 1.44075 142.996 0 139.572 0C136.11 0 133.713 1.44075 132.61 3.82935C132.078 5.00469 131.811 6.40753 131.811 7.96201C131.811 9.5165 132.078 10.9193 132.648 12.0947C133.789 14.5212 136.148 15.924 139.572 15.924C143.034 15.924 145.354 14.5212 146.534 12.0947C147.104 10.9193 147.371 9.5165 147.371 7.96201C147.371 6.40753 147.028 5.00469 146.496 3.82935ZM143.224 10.9572C142.615 12.2842 141.436 13.0425 139.534 13.0425C137.632 13.0425 136.414 12.2463 135.844 10.9572C135.463 10.1231 135.311 9.21319 135.311 7.9241C135.311 6.63501 135.463 5.72507 135.844 4.89095C136.452 3.60186 137.632 2.80566 139.534 2.80566C141.436 2.80566 142.653 3.60186 143.224 4.89095C143.642 5.72507 143.757 6.63501 143.757 7.9241C143.757 9.21319 143.604 10.161 143.224 10.9572Z" fill="black"/>
<path fill-rule="evenodd" clip-rule="evenodd" d="M11.7798 0.682617H15.2947V14.0382H11.7798V6.65137L2.85602 15.5452L0.370605 13.0681L9.28278 4.18587H1.89391V0.682766H11.7798V0.682617Z" fill="black"/>
</svg>
